# xmcd
# 
# Track frame offsets:
#     225
#     17247
#     29483
#     50811
#     66777
#     85345
#     103292
#     124185
#     141378
#     161177
#     180691
#     197629
# 
# Disc length: 2876
# 
# Revision: 1
# Processed by: cddbd v1.5.2PL0 Copyright (c) Steve Scherf et al.
# Submitted via: fre:ac v1.0.27
# 
DISCID=b80b390c
DTITLE=Various Artist - Jesus Take The Wheel - Today's Best Inspiration Country Songs
DYEAR=2006
DGENRE=Southern Gospel
TTITLE0=Jesus Take The Wheel
TTITLE1=Low And Down
TTITLE2=Believe
TTITLE3=Living Prayer
TTITLE4=Raise Him Up
TTITLE5=Long Black Train
TTITLE6=Go Rest High On That Mountain
TTITLE7=Bless The Broken Road
TTITLE8=Blessed
TTITLE9=They Don't Understand
TTITLE10=Angels
TTITLE11=When I Get Where I'm Going
EXTD=
EXTT0=
EXTT1=
EXTT2=
EXTT3=
EXTT4=
EXTT5=
EXTT6=
EXTT7=
EXTT8=
EXTT9=
EXTT10=
EXTT11=
PLAYORDER=
